<?xml version="1.0" standalone="no"?>
<!DOCTYPE svg PUBLIC "-//W3C//DTD SVG 20010904//EN"
 "http://www.w3.org/TR/2001/REC-SVG-20010904/DTD/svg10.dtd">
<svg version="1.0" xmlns="http://www.w3.org/2000/svg"
 width="300.000000pt" height="284.000000pt" viewBox="0 0 300.000000 284.000000"
 preserveAspectRatio="xMidYMid meet">
<metadata>
Created by potrace 1.10, written by Peter Selinger 2001-2011
</metadata>
<g transform="translate(0.000000,284.000000) scale(0.100000,-0.100000)"
fill="#000000" stroke="none">
<path d="M680 2824 c-19 -9 -42 -19 -50 -23 -8 -4 -22 -26 -30 -49 -13 -37
-12 -43 4 -61 14 -15 15 -24 7 -40 -18 -32 -13 -66 15 -106 31 -46 28 -72 -21
-191 -45 -109 -107 -411 -104 -506 l2 -69 -39 -26 c-58 -39 -132 -99 -197
-162 -78 -75 -187 -205 -187 -224 0 -9 13 -29 30 -45 l30 -30 -64 -134 c-36
-73 -67 -143 -70 -154 -14 -46 71 -107 194 -139 32 -8 44 -16 42 -27 -3 -22
60 -73 111 -88 23 -7 74 -15 112 -19 l70 -6 6 -85 c4 -55 18 -118 38 -178 40
-120 42 -190 5 -227 -21 -21 -25 -33 -20 -58 3 -18 8 -62 12 -99 9 -85 24 -89
24 -7 0 74 16 75 43 3 21 -56 24 -59 54 -68 l22 -7 -25 58 c-14 32 -39 72 -55
88 -16 17 -29 37 -29 45 1 19 24 50 37 50 11 0 53 -118 53 -149 0 -10 9 -26
20 -36 11 -10 20 -24 20 -32 0 -8 12 -13 35 -13 47 0 47 26 0 46 -26 11 -35
20 -35 39 0 13 -11 54 -24 92 -27 77 -41 266 -30 408 l7 80 32 0 c32 0 33 -1
44 -65 7 -36 30 -104 52 -151 21 -47 43 -110 49 -139 10 -51 9 -55 -16 -81
l-25 -27 13 -103 13 -104 5 60 c6 77 26 80 51 6 22 -64 17 -58 52 -66 l28 -8
-20 39 c-12 21 -21 44 -21 51 0 6 -18 31 -40 54 -22 24 -40 45 -40 46 0 10 34
53 41 53 13 0 35 -50 48 -107 6 -29 21 -69 33 -88 19 -28 29 -35 56 -35 44 0
42 27 -3 46 -24 10 -35 21 -35 35 0 12 -13 60 -29 108 -28 81 -48 211 -66 421
l-7 75 79 1 c89 2 180 32 170 58 -4 10 10 15 57 19 34 3 74 11 90 17 28 10 28
11 21 68 -37 319 -197 712 -372 919 -46 54 -53 68 -53 105 -1 24 -5 63 -9 88
-8 39 -6 48 15 73 16 19 24 41 24 66 0 34 -8 46 -72 108 -91 88 -120 133 -111
173 6 30 17 38 28 20 3 -5 15 -14 25 -20 15 -8 25 -4 49 22 17 18 31 38 31 45
0 6 9 9 20 6 23 -6 25 3 10 43 -8 21 -7 31 6 45 8 9 18 37 21 61 3 24 11 46
17 50 7 5 7 16 1 35 -13 35 -89 83 -144 90 -26 4 -41 11 -41 20 0 7 -12 18
-26 23 -30 12 -22 13 -64 -6z m65 -44 c9 -10 41 -26 69 -35 28 -8 62 -23 75
-34 l24 -19 -17 -63 c-9 -35 -20 -80 -23 -99 -8 -52 -50 -92 -91 -88 -35 4
-68 -21 -73 -57 -6 -40 41 -118 111 -186 40 -40 70 -77 70 -89 0 -10 -9 -36
-21 -56 -18 -33 -20 -47 -14 -123 8 -93 20 -122 84 -200 130 -154 266 -464
320 -728 29 -140 28 -171 -5 -183 -14 -6 -40 -10 -57 -10 -21 0 -45 -10 -67
-29 -36 -30 -112 -51 -180 -51 -30 0 -43 -6 -60 -27 -22 -28 -22 -33 -4 -210
3 -30 1 -53 -4 -53 -13 0 -57 104 -72 170 -7 30 -22 65 -33 77 -41 46 -126 16
-128 -45 -2 -70 -10 -197 -14 -200 -10 -10 -48 124 -52 188 -6 81 -26 129 -58
135 -11 2 -49 7 -85 10 -81 8 -122 27 -159 74 -23 29 -49 44 -113 69 -46 17
-94 41 -106 52 -25 24 -27 19 52 184 31 64 56 125 56 135 0 10 -9 30 -21 45
-13 17 -18 33 -14 47 10 31 199 223 290 294 114 90 111 85 118 200 8 131 56
357 100 470 50 128 54 156 27 200 -17 27 -23 55 -25 118 -4 89 -3 95 35 120
32 22 43 21 65 -3z"/>
<path d="M602 2028 c-14 -19 -43 -78 -38 -78 3 0 0 -13 -5 -29 -8 -23 -7 -38
7 -66 20 -42 33 -50 69 -41 42 11 65 41 65 86 0 90 -62 171 -98 128z m51 -72
c9 -35 17 -70 17 -78 0 -12 -59 -43 -67 -35 -13 14 11 177 27 177 3 0 14 -29
23 -64z"/>
<path d="M1987 2184 c-3 -3 -2 -17 4 -31 7 -19 4 -30 -13 -53 -12 -17 -25 -30
-30 -30 -4 0 -8 -10 -8 -23 0 -15 -11 -29 -30 -40 -33 -20 -38 -35 -15 -43 12
-5 14 -19 10 -72 -5 -76 0 -82 61 -82 37 0 43 -3 55 -31 11 -28 10 -33 -6 -45
-10 -8 -16 -17 -12 -20 3 -3 -7 -30 -23 -58 -17 -29 -38 -78 -49 -108 -17 -49
-113 -208 -126 -208 -2 0 -54 36 -116 81 -61 44 -118 79 -127 77 -17 -3 -45
17 -94 66 -26 26 -29 35 -23 70 10 70 10 79 -2 83 -7 3 -13 -10 -15 -34 -2
-28 -8 -39 -22 -41 -11 -3 -16 0 -12 7 4 6 0 11 -9 11 -9 0 -14 -4 -11 -9 3
-5 -3 -11 -14 -14 -17 -4 -20 -14 -20 -69 0 -60 2 -66 34 -97 26 -25 46 -35
80 -38 45 -5 57 -15 36 -28 -8 -5 -7 -11 1 -21 6 -8 8 -14 4 -14 -4 0 43 -37
106 -82 231 -165 240 -170 274 -138 12 11 23 20 26 20 2 0 5 -20 7 -45 3 -42
1 -45 -22 -45 -14 0 -28 -4 -31 -10 -3 -5 -15 -10 -26 -10 -10 0 -19 -4 -19
-10 0 -5 -22 -10 -49 -10 -37 0 -60 -7 -90 -27 -39 -25 -48 -42 -66 -118 -1
-5 -5 -23 -10 -38 -13 -47 29 -214 132 -530 43 -132 46 -139 69 -134 37 7 29
-7 -28 -51 -67 -50 -83 -58 -135 -67 -36 -6 -43 -10 -43 -30 0 -25 22 -35 79
-35 27 0 31 3 22 14 -13 16 -9 19 61 59 51 30 88 70 88 98 0 9 -12 32 -27 49
-28 34 -110 279 -158 478 -25 98 -26 124 -10 185 2 4 3 14 4 23 0 9 16 31 35
50 26 26 42 34 70 34 49 0 164 48 182 75 18 27 10 70 -18 102 -17 18 -24 20
-48 11 -23 -7 -37 -5 -72 13 -23 12 -45 25 -48 29 -4 5 -76 56 -154 109 -42
29 -66 55 -66 72 0 9 -14 29 -31 44 -35 29 -32 46 3 23 13 -8 36 -18 52 -22
16 -4 67 -34 114 -67 110 -79 126 -86 156 -70 39 22 146 182 146 221 0 6 20
53 45 103 25 51 45 105 45 119 0 35 -44 86 -78 90 -25 3 -28 7 -35 66 -8 56
-7 66 10 85 29 32 83 122 83 137 0 9 18 11 71 8 69 -4 73 -5 110 -46 59 -62
56 -97 -18 -209 -39 -60 -39 -63 19 -198 44 -102 54 -146 73 -330 19 -177 16
-166 70 -280 50 -106 105 -265 105 -304 0 -17 -10 -36 -25 -49 -27 -24 -29
-30 -45 -157 -6 -49 -20 -139 -31 -199 -30 -160 -10 -186 111 -147 34 11 126
36 205 56 78 19 156 42 171 50 66 34 98 4 75 -68 -10 -29 -9 -43 9 -88 11 -30
20 -60 20 -66 0 -20 -28 -15 -35 6 -3 10 -13 27 -23 38 -36 41 -49 42 -146 11
-115 -38 -294 -89 -411 -118 l-89 -22 -22 26 c-13 14 -26 47 -30 73 -7 51 2
440 12 484 4 19 -1 34 -19 54 -22 26 -39 31 -173 56 -188 35 -209 36 -229 6
-14 -22 -13 -30 10 -98 31 -88 76 -253 99 -361 9 -42 26 -94 36 -117 29 -58
26 -87 -7 -94 -15 -3 -36 -1 -47 5 -27 15 -79 3 -123 -26 l-38 -26 31 0 c18 0
48 7 69 16 33 13 38 13 48 0 10 -12 26 -14 75 -9 l63 6 -6 51 c-4 28 -15 65
-25 83 -10 17 -31 87 -45 155 -31 142 -75 293 -105 362 l-20 48 27 -7 c55 -14
224 -44 284 -51 l61 -7 -6 -31 c-3 -17 -9 -133 -12 -257 -7 -236 -1 -304 33
-341 21 -23 104 -24 205 -3 112 24 418 117 433 132 11 11 17 9 34 -13 24 -31
26 -43 9 -79 -18 -40 1 -51 48 -27 22 11 47 29 57 40 19 20 18 23 -4 98 -17
57 -20 79 -11 82 13 4 16 60 6 110 -6 31 -7 31 -53 25 -25 -3 -58 -12 -73 -20
-15 -7 -99 -31 -186 -53 -87 -22 -185 -49 -217 -60 -32 -11 -59 -19 -61 -17
-1 1 4 29 12 62 20 85 54 316 54 364 0 36 3 41 23 41 46 0 51 12 38 80 -17 86
-65 218 -116 320 -41 82 -43 91 -59 254 -19 179 -35 256 -66 322 -11 22 -20
47 -20 56 0 9 -7 21 -15 28 -8 7 -15 21 -15 30 0 10 -5 20 -10 22 -6 2 10 31
36 66 48 65 64 121 50 176 -9 36 -64 96 -103 112 -32 14 -194 20 -206 8z
m-546 -642 c10 -19 10 -25 -2 -38 -18 -17 -45 -10 -51 14 -3 9 -3 35 0 56 l5
39 18 -24 c10 -13 24 -34 30 -47z"/>
</g>
</svg>
